<?xml version="1.0"?>
<svg version="1.1" xmlns="http://www.w3.org/2000/svg" width="200" height="200" style="border: dashed 2px #aaa"><path fill="#" d="M17.978515625,82.080078125q0-3.41796875,1.171875-4.58984375t3.271484375-1.171875q0.5859375,0,1.2451171875,0.09765625t1.2451171875,0.29296875q3.271484375-0.634765625,6.201171875-0.634765625q4.736328125,0,8.59375,1.66015625q6.201171875,2.63671875,10.25390625,7.8125t5.95703125,12.158203125t1.904296875,14.306640625q0,4.1015625-0.5615234375,8.544921875t-2.1728515625,8.251953125q-1.416015625,3.41796875-3.90625,7.1533203125t-5.6396484375,7.080078125t-6.787109375,5.859375t-7.3486328125,3.3935546875l0,0.390625q0,0.9765625-0.5126953125,1.5869140625t-1.2451171875,0.927734375t-1.6845703125,0.4150390625t-1.7822265625,0.09765625q-0.48828125,0-1.3916015625-0.09765625t-1.7578125-0.3662109375t-1.4404296875-0.7080078125t-0.5859375-1.220703125q0-8.88671875-0.4638671875-17.7978515625t-1.0498046875-17.822265625t-1.0498046875-17.7978515625t-0.4638671875-17.822265625z M27.20703125,79.58984375q0.48828125,4.6875,0.634765625,9.3505859375t0.439453125,9.3505859375q0.78125,12.109375,1.806640625,24.0966796875t1.220703125,24.0966796875q4.6875-3.076171875,8.0322265625-7.03125t5.4931640625-8.59375t3.1494140625-9.7412109375t1.0009765625-10.5224609375q0-3.90625-0.68359375-8.59375t-2.34375-9.033203125t-4.4677734375-7.861328125t-7.0068359375-5.029296875q-0.87890625-0.29296875-2.1240234375-0.48828125t-3.9794921875-0.1953125q-0.29296875,0-0.5859375,0.09765625t-0.5859375,0.09765625z M67.76708984375,119.189453125q0-2.001953125,1.171875-3.4423828125t2.8564453125-2.34375t3.6865234375-1.3427734375t3.7109375-0.439453125q1.318359375,0,3.515625,0.390625t4.296875,1.171875t3.6376953125,2.05078125t1.5380859375,2.978515625q0,0.78125-0.5859375,1.3916015625t-1.220703125,0.6103515625q-1.318359375,0-2.392578125-0.8544921875t-2.2216796875-1.806640625t-2.5146484375-1.806640625t-3.076171875-0.8544921875t-3.1005859375,1.0986328125t-1.3916015625,2.9052734375q0,2.978515625,2.099609375,5.8349609375t4.6142578125,6.005859375t4.6142578125,6.6162109375t2.099609375,7.666015625q0,1.806640625-0.7568359375,3.0517578125t-2.001953125,2.0263671875t-2.8076171875,1.1962890625t-3.02734375,0.4150390625q-1.611328125,0-3.759765625-0.7568359375t-4.052734375-2.001953125t-3.1982421875-2.9052734375t-1.2939453125-3.466796875q0-0.87890625,1.2451171875-1.123046875t1.8310546875-0.244140625q0.29296875,0,0.9033203125,0.1953125t1.1962890625,0.439453125t1.0498046875,0.537109375t0.3662109375,0.634765625q0.48828125,0.5859375,1.4892578125,1.7333984375t2.001953125,1.85546875t1.7578125,0.5126953125t0.7568359375-2.197265625q0-3.80859375-2.05078125-7.0068359375t-4.4677734375-6.25t-4.4677734375-6.0546875t-2.05078125-6.4208984375z M102.1748046875,119.287109375q0-8.3984375,0.4638671875-16.6015625t1.1474609375-16.6015625q0.1953125-2.197265625,0.244140625-4.248046875t0.4638671875-3.5888671875t1.46484375-2.44140625t3.2470703125-0.9033203125q1.416015625,0,2.9541015625,0.48828125t1.5380859375,2.294921875q0,6.787109375-0.5615234375,13.3544921875t-0.7568359375,13.0615234375q5.322265625-6.005859375,11.376953125-11.2060546875t12.841796875-10.2783203125q0.9765625-0.68359375,2.490234375-0.732421875q0.48828125,0,0.8544921875,0.048828125t0.7568359375,0.146484375q0.48828125,0.1953125,1.0009765625,0.4638671875t0.5126953125,0.7568359375q0,0.390625-0.439453125,0.68359375q-5.078125,4.1015625-10.0341796875,8.349609375t-9.4482421875,9.08203125q0.5859375,1.123046875,1.0009765625,2.099609375t0.9033203125,2.099609375q4.1015625,9.716796875,7.0068359375,19.8974609375t6.1767578125,20.1904296875q0.29296875,1.123046875,0.8544921875,2.3193359375t1.0498046875,2.392578125t0.8544921875,2.24609375t0.3662109375,1.7333984375q0,0.87890625-0.5615234375,1.3916015625t-1.2939453125,0.8056640625t-1.5869140625,0.390625t-1.5869140625,0.09765625q-1.708984375,0-3.0517578125-0.48828125t-2.1240234375-2.197265625q-3.61328125-11.5234375-6.9580078125-23.046875t-6.7626953125-23.2421875q-1.123046875,1.123046875-2.24609375,2.8076171875t-2.05078125,3.1005859375q0,7.32421875,0.341796875,14.55078125t1.171875,14.55078125q0.1953125,2.099609375,0.6591796875,4.19921875t0.4638671875,4.296875q0,1.611328125-1.66015625,2.24609375t-3.662109375,0.634765625q-2.197265625,0-3.2958984375-0.439453125t-1.5625-1.1474609375t-0.5615234375-1.5625t-0.29296875-1.6357421875q-1.123046875-7.71484375-1.416015625-15.2587890625t-0.29296875-15.1611328125z M153.23291015625,147.216796875q0-1.220703125,0.146484375-2.4658203125t0.146484375-2.4658203125l0-0.78125q0-1.513671875,1.2451171875-1.904296875t2.5634765625-0.390625q1.513671875,0,2.9052734375,0.634765625t1.3916015625,2.44140625q0.29296875,0.87890625,0.29296875,2.099609375l0,2.294921875q0,1.708984375-1.1962890625,2.3681640625t-3.1982421875,0.6591796875q-1.416015625,0-2.8564453125-0.5126953125t-1.4404296875-1.9775390625z"/><path fill="#" d=""/></svg>
